<svg width="21" height="21" viewBox="0 0 21 21" fill="none" xmlns="http://www.w3.org/2000/svg">
<path d="M13 6.34173C13 5.7834 12.725 5.26673 12.2583 4.9584L8.925 2.7334C8.36667 2.3584 7.63333 2.3584 7.075 2.7334L3.74167 4.9584C3.28333 5.26673 3 5.7834 3 6.34173V11.0751C3 11.3084 3.18333 11.4918 3.41667 11.4918H12.5833C12.8167 11.4918 13 11.3084 13 11.0751V6.34173ZM8 9.40839C7.2 9.40839 6.54167 8.75006 6.54167 7.95006C6.54167 7.15006 7.2 6.49173 8 6.49173C8.8 6.49173 9.45833 7.15006 9.45833 7.95006C9.45833 8.75006 8.8 9.40839 8 9.40839Z" fill="#0F55DC"/>
<path d="M18.8332 18.1588H17.7748V15.6588C18.5665 15.4004 19.1415 14.6587 19.1415 13.7837V12.1171C19.1415 11.0254 18.2498 10.1338 17.1582 10.1338C16.0665 10.1338 15.1748 11.0254 15.1748 12.1171V13.7837C15.1748 14.6504 15.7415 15.3837 16.5165 15.6504V18.1588H12.9998V13.1587C12.9998 12.9254 12.8165 12.7421 12.5832 12.7421H3.4165C3.18317 12.7421 2.99984 12.9254 2.99984 13.1587V18.1588H2.1665C1.82484 18.1588 1.5415 18.4421 1.5415 18.7838C1.5415 19.1254 1.82484 19.4088 2.1665 19.4088H17.1082C17.1248 19.4088 17.1332 19.4171 17.1498 19.4171C17.1665 19.4171 17.1748 19.4088 17.1915 19.4088H18.8332C19.1748 19.4088 19.4582 19.1254 19.4582 18.7838C19.4582 18.4421 19.1748 18.1588 18.8332 18.1588ZM7.37484 15.6588C7.37484 15.3171 7.65817 15.0337 7.99984 15.0337C8.3415 15.0337 8.62484 15.3171 8.62484 15.6588V18.1588H7.37484V15.6588Z" fill="#0F55DC"/>
</svg>
