<svg width="25" height="25" viewBox="0 0 25 25" fill="none" xmlns="http://www.w3.org/2000/svg">
<path d="M22.47 18.9696C22.47 19.3296 22.39 19.6996 22.22 20.0596C22.05 20.4196 21.83 20.7596 21.54 21.0796C21.05 21.6196 20.51 22.0096 19.9 22.2596C19.3 22.5096 18.65 22.6396 17.95 22.6396C16.93 22.6396 15.84 22.3996 14.69 21.9096C13.54 21.4196 12.39 20.7596 11.25 19.9296C10.1 19.0896 9.01 18.1596 7.97 17.1296C6.94 16.0896 6.01 14.9996 5.18 13.8596C4.36 12.7196 3.7 11.5796 3.22 10.4496C2.74 9.30965 2.5 8.21965 2.5 7.17965C2.5 6.49965 2.62 5.84965 2.86 5.24965C3.1 4.63965 3.48 4.07965 4.01 3.57965C4.65 2.94965 5.35 2.63965 6.09 2.63965C6.37 2.63965 6.65 2.69965 6.9 2.81965C7.16 2.93965 7.39 3.11965 7.57 3.37965L9.89 6.64965C10.07 6.89965 10.2 7.12965 10.29 7.34965C10.38 7.55965 10.43 7.76965 10.43 7.95965C10.43 8.19965 10.36 8.43965 10.22 8.66965C10.09 8.89965 9.9 9.13965 9.66 9.37965L8.9 10.1696C8.79 10.2796 8.74 10.4096 8.74 10.5696C8.74 10.6496 8.75 10.7196 8.77 10.7996C8.8 10.8796 8.83 10.9396 8.85 10.9996C9.03 11.3296 9.34 11.7596 9.78 12.2796C10.23 12.7996 10.71 13.3296 11.23 13.8596C11.77 14.3896 12.29 14.8796 12.82 15.3296C13.34 15.7696 13.77 16.0696 14.11 16.2496C14.16 16.2696 14.22 16.2996 14.29 16.3296C14.37 16.3596 14.45 16.3696 14.54 16.3696C14.71 16.3696 14.84 16.3096 14.95 16.1996L15.71 15.4496C15.96 15.1996 16.2 15.0096 16.43 14.8896C16.66 14.7496 16.89 14.6796 17.14 14.6796C17.33 14.6796 17.53 14.7196 17.75 14.8096C17.97 14.8996 18.2 15.0296 18.45 15.1996L21.76 17.5496C22.02 17.7296 22.2 17.9396 22.31 18.1896C22.41 18.4396 22.47 18.6896 22.47 18.9696Z" stroke="white" stroke-width="2" stroke-miterlimit="10"/>
<path d="M19 9.63965C19 9.03965 18.53 8.11965 17.83 7.36965C17.19 6.67965 16.34 6.13965 15.5 6.13965" stroke="white" stroke-width="2" stroke-linecap="round" stroke-linejoin="round"/>
<path d="M22.5 9.63965C22.5 5.76965 19.37 2.63965 15.5 2.63965" stroke="white" stroke-width="2" stroke-linecap="round" stroke-linejoin="round"/>
</svg>
