<svg width="24" height="24" viewBox="0 0 24 24" fill="none" xmlns="http://www.w3.org/2000/svg">
<g clip-path="url(#clip0_5_1124)">
<path d="M23.39 12.25C23.39 13.2313 22.1844 14.0402 21.9429 14.9448C21.6937 15.8802 22.3243 17.1835 21.8509 18.0019C21.3698 18.8337 19.9227 18.9334 19.2481 19.6081C18.5734 20.2827 18.4737 21.7298 17.6419 22.2109C16.8235 22.6843 15.5202 22.0537 14.5848 22.3029C13.6802 22.5444 12.8713 23.75 11.89 23.75C10.9087 23.75 10.0998 22.5444 9.19517 22.3029C8.25983 22.0537 6.9565 22.6843 6.13808 22.2109C5.30625 21.7298 5.20658 20.2827 4.53192 19.6081C3.85725 18.9334 2.41017 18.8337 1.92908 18.0019C1.45567 17.1835 2.08625 15.8802 1.83708 14.9448C1.59558 14.0402 0.389999 13.2313 0.389999 12.25C0.389999 11.2687 1.59558 10.4598 1.83708 9.55517C2.08625 8.61983 1.45567 7.3165 1.92908 6.49808C2.41017 5.66625 3.85725 5.56658 4.53192 4.89192C5.20658 4.21725 5.30625 2.77017 6.13808 2.28908C6.9565 1.81567 8.25983 2.44625 9.19517 2.19708C10.0998 1.95558 10.9087 0.75 11.89 0.75C12.8713 0.75 13.6802 1.95558 14.5848 2.19708C15.5202 2.44625 16.8235 1.81567 17.6419 2.28908C18.4737 2.77017 18.5734 4.21725 19.2481 4.89192C19.9227 5.56658 21.3698 5.66625 21.8509 6.49808C22.3243 7.3165 21.6937 8.61983 21.9429 9.55517C22.1844 10.4598 23.39 11.2687 23.39 12.25Z" fill="#5ED508"/>
<path d="M15.2133 8.82257L10.8356 13.2003L8.56632 10.9329C8.07373 10.4402 7.27448 10.4402 6.7819 10.9329C6.28932 11.4254 6.28932 12.2247 6.7819 12.7173L9.96548 15.9009C10.4446 16.38 11.2228 16.38 11.702 15.9009L16.9958 10.607C17.4884 10.1144 17.4884 9.31515 16.9958 8.82257C16.5032 8.32998 15.7059 8.32998 15.2133 8.82257Z" fill="white"/>
</g>
<defs>
<clipPath id="clip0_5_1124">
<rect width="23" height="23" fill="white" transform="translate(0.389999 0.75)"/>
</clipPath>
</defs>
</svg>
