<svg width="41" height="42" viewBox="0 0 41 42" fill="none" xmlns="http://www.w3.org/2000/svg">
<path d="M13.6665 21.1021H25.6248" stroke="#33CCCC" stroke-width="2.3" stroke-miterlimit="10" stroke-linecap="round" stroke-linejoin="round"/>
<path d="M13.6665 27.9351H21.149" stroke="#33CCCC" stroke-width="2.3" stroke-miterlimit="10" stroke-linecap="round" stroke-linejoin="round"/>
<path d="M17.0832 10.5101H23.9165C27.3332 10.5101 27.3332 8.80176 27.3332 7.09342C27.3332 3.67676 25.6248 3.67676 23.9165 3.67676H17.0832C15.3748 3.67676 13.6665 3.67676 13.6665 7.09342C13.6665 10.5101 15.3748 10.5101 17.0832 10.5101Z" stroke="#0C111D" stroke-width="2.3" stroke-miterlimit="10" stroke-linecap="round" stroke-linejoin="round"/>
<path d="M27.3333 7.12793C33.0221 7.43543 35.875 9.53668 35.875 17.3437V27.5937C35.875 34.4271 34.1667 37.8437 25.625 37.8437H15.375C6.83333 37.8437 5.125 34.4271 5.125 27.5937V17.3437C5.125 9.55377 7.97792 7.43543 13.6667 7.12793" stroke="#0C111D" stroke-width="2.3" stroke-miterlimit="10" stroke-linecap="round" stroke-linejoin="round"/>
</svg>
