<svg width="24" height="24" viewBox="0 0 24 24" fill="none" xmlns="http://www.w3.org/2000/svg">
<g clip-path="url(#clip0_5_1130)">
<path d="M23.425 12.25C23.425 13.2313 22.2194 14.0402 21.9779 14.9448C21.7287 15.8802 22.3593 17.1835 21.8859 18.0019C21.4048 18.8337 19.9577 18.9334 19.2831 19.6081C18.6084 20.2827 18.5087 21.7298 17.6769 22.2109C16.8585 22.6843 15.5552 22.0537 14.6198 22.3029C13.7152 22.5444 12.9063 23.75 11.925 23.75C10.9437 23.75 10.1348 22.5444 9.23016 22.3029C8.29482 22.0537 6.99149 22.6843 6.17307 22.2109C5.34124 21.7298 5.24157 20.2827 4.56691 19.6081C3.89224 18.9334 2.44516 18.8337 1.96407 18.0019C1.49066 17.1835 2.12124 15.8802 1.87207 14.9448C1.63057 14.0402 0.424988 13.2313 0.424988 12.25C0.424988 11.2687 1.63057 10.4598 1.87207 9.55517C2.12124 8.61983 1.49066 7.3165 1.96407 6.49808C2.44516 5.66625 3.89224 5.56658 4.56691 4.89192C5.24157 4.21725 5.34124 2.77017 6.17307 2.28908C6.99149 1.81567 8.29482 2.44625 9.23016 2.19708C10.1348 1.95558 10.9437 0.75 11.925 0.75C12.9063 0.75 13.7152 1.95558 14.6198 2.19708C15.5552 2.44625 16.8585 1.81567 17.6769 2.28908C18.5087 2.77017 18.6084 4.21725 19.2831 4.89192C19.9577 5.56658 21.4048 5.66625 21.8859 6.49808C22.3593 7.3165 21.7287 8.61983 21.9779 9.55517C22.2194 10.4598 23.425 11.2687 23.425 12.25Z" fill="#FF002E"/>
<path d="M16.4335 8.89679L13.3368 11.9938L16.4335 15.0906C16.8941 15.5514 16.8941 16.2978 16.4335 16.7586C16.2034 16.9887 15.9016 17.1039 15.6 17.1039C15.2979 17.1039 14.9962 16.9889 14.7662 16.7586L11.6689 13.6614L8.57178 16.7586C8.34166 16.9887 8.0399 17.1039 7.73805 17.1039C7.43628 17.1039 7.13472 16.9889 6.9044 16.7586C6.44379 16.298 6.44379 15.5515 6.9044 15.0906L10.001 11.9938L6.90423 8.89679C6.44362 8.43618 6.44362 7.68959 6.90423 7.22898C7.36475 6.76872 8.1109 6.76872 8.5716 7.22898L11.6689 10.326L14.7659 7.22898C15.2266 6.76872 15.9729 6.76872 16.4333 7.22898C16.8941 7.68959 16.8941 8.43618 16.4335 8.89679Z" fill="white"/>
</g>
<defs>
<clipPath id="clip0_5_1130">
<rect width="23" height="23" fill="white" transform="translate(0.424988 0.75)"/>
</clipPath>
</defs>
</svg>
