<svg width="20" height="21" viewBox="0 0 20 21" fill="none" xmlns="http://www.w3.org/2000/svg">
<path d="M15 2.11719H5C3.61667 2.11719 2.5 3.22552 2.5 4.59219V13.6838C2.5 15.0505 3.61667 16.1588 5 16.1588H5.63333C6.3 16.1588 6.93333 16.4171 7.4 16.8838L8.825 18.2921C9.475 18.9338 10.5333 18.9338 11.1833 18.2921L12.6083 16.8838C13.075 16.4171 13.7167 16.1588 14.375 16.1588H15C16.3833 16.1588 17.5 15.0505 17.5 13.6838V4.59219C17.5 3.22552 16.3833 2.11719 15 2.11719ZM13.9 9.20052L12.925 12.1671C12.8 12.6588 12.275 13.0588 11.7417 13.0588H10.2C9.93333 13.0588 9.55833 12.9671 9.39167 12.8005L8.16667 11.8421C8.14167 12.3755 7.9 12.6005 7.30833 12.6005H6.90833C6.29167 12.6005 6.04167 12.3588 6.04167 11.7755V7.80052C6.04167 7.21719 6.29167 6.97552 6.90833 6.97552H7.31667C7.93333 6.97552 8.18333 7.21719 8.18333 7.80052V8.10052L9.8 5.70052C9.96667 5.44219 10.3917 5.25885 10.75 5.40052C11.1417 5.53386 11.3917 5.96719 11.3083 6.35052L11.1083 7.65052C11.0833 7.75886 11.1083 7.87552 11.1833 7.95052C11.25 8.02552 11.35 8.07552 11.4583 8.07552H13.0833C13.4 8.07552 13.6667 8.20052 13.825 8.42552C13.975 8.64219 14 8.91719 13.9 9.20052Z" fill="#0F55DC"/>
</svg>
