<svg width="41" height="42" viewBox="0 0 41 42" fill="none" xmlns="http://www.w3.org/2000/svg">
<path d="M32.4582 16.2249C32.4582 18.702 31.7236 20.9741 30.4594 22.8703C28.6144 25.6037 25.6932 27.5341 22.2936 28.0295C21.7128 28.132 21.1148 28.1832 20.4998 28.1832C19.8848 28.1832 19.2869 28.132 18.7061 28.0295C15.3065 27.5341 12.3853 25.6037 10.5403 22.8703C9.27609 20.9741 8.5415 18.702 8.5415 16.2249C8.5415 9.61368 13.8886 4.2666 20.4998 4.2666C27.1111 4.2666 32.4582 9.61368 32.4582 16.2249Z" stroke="#0C111D" stroke-width="2.2" stroke-linecap="round" stroke-linejoin="round"/>
<path d="M36.3019 32.4031L33.4832 33.0693C32.8511 33.2231 32.3557 33.7014 32.219 34.3335L31.6211 36.8448C31.2965 38.2114 29.554 38.6215 28.6486 37.5452L20.4999 28.1835L12.3511 37.5623C11.4457 38.6385 9.70318 38.2285 9.3786 36.8618L8.78068 34.3506C8.62693 33.7185 8.13152 33.2231 7.51652 33.0864L4.69777 32.4202C3.39943 32.1127 2.93818 30.4897 3.87777 29.5502L10.5403 22.8877C12.3853 25.621 15.3065 27.5515 18.7061 28.0469C19.2869 28.1494 19.8849 28.2006 20.4999 28.2006C21.1149 28.2006 21.7128 28.1494 22.2936 28.0469C25.6932 27.5515 28.6144 25.621 30.4594 22.8877L37.1219 29.5502C38.0615 30.4727 37.6003 32.0956 36.3019 32.4031Z" stroke="#0C111D" stroke-width="2.2" stroke-linecap="round" stroke-linejoin="round"/>
<path d="M21.4909 11.0661L22.4988 13.082C22.6355 13.3553 22.9942 13.6286 23.3188 13.6799L25.1467 13.9874C26.3084 14.1753 26.5817 15.0295 25.7446 15.8666L24.3267 17.2844C24.0875 17.5236 23.9509 17.9849 24.0363 18.3266L24.4463 20.0861C24.7709 21.4699 24.0363 22.0165 22.8063 21.2819L21.098 20.274C20.7905 20.0861 20.278 20.0861 19.9705 20.274L18.2621 21.2819C17.0321 21.9994 16.2975 21.4699 16.6221 20.0861L17.0321 18.3266C17.1005 18.002 16.9809 17.5236 16.7417 17.2844L15.3238 15.8666C14.4867 15.0295 14.76 14.1924 15.9217 13.9874L17.7496 13.6799C18.0571 13.6286 18.4159 13.3553 18.5525 13.082L19.5605 11.0661C20.0559 9.97277 20.9442 9.97277 21.4909 11.0661Z" stroke="#FFD600" stroke-width="2.2" stroke-linecap="round" stroke-linejoin="round"/>
</svg>
