<?xml version="1.0" encoding="UTF-8"?>
<svg id="b" data-name="Layer 2" xmlns="http://www.w3.org/2000/svg" width="250" height="250" viewBox="0 0 250 250">
  <g id="c" data-name="Using Passowrd">
    <rect width="250" height="250" style="fill: none;"/>
    <g>
      <path d="M127.25,134.54c-.89,0-1.79-.27-2.54-.78-32.87-22.11-51.86-55.16-52.13-90.69-.02-2.08,1.38-3.91,3.39-4.44l50.12-13.3c.76-.2,1.56-.2,2.34,0l50.12,13.3c2.01.54,3.39,2.37,3.39,4.44-.25,35.5-19.26,68.57-52.13,90.69-.78.51-1.67.78-2.57.78ZM81.8,46.53c1.38,30.21,17.76,58.31,45.46,77.92,27.69-19.61,44.07-47.71,45.46-77.92l-45.46-12.07-45.46,12.07Z" style="fill: #3575bb;"/>
      <g>
        <path d="M103.38,80.06c0-6.76,0-10.13,2.1-12.23,2.1-2.1,5.48-2.1,12.23-2.1h19.11c6.76,0,10.13,0,12.23,2.1,2.1,2.1,2.1,5.48,2.1,12.23s0,10.13-2.1,12.23-5.48,2.1-12.23,2.1h-19.11c-6.76,0-10.13,0-12.23-2.1s-2.1-5.48-2.1-12.23Z" style="fill: none; stroke: #6a489d; stroke-miterlimit: 133.33; stroke-width: 3.58px;"/>
        <path d="M112.93,65.73v-4.78c0-7.92,6.42-14.33,14.33-14.33s14.33,6.42,14.33,14.33v4.78" style="fill: none; stroke: #6a489d; stroke-linecap: round; stroke-miterlimit: 133.33; stroke-width: 3.58px;"/>
        <path d="M117.71,80.06h.02M127.24,80.06h.02M136.8,80.06h.02" style="fill: none; stroke: #6a489d; stroke-linecap: round; stroke-linejoin: round; stroke-width: 4.78px;"/>
      </g>
      <rect x="15" y="157.19" width="224.53" height="67.63" rx="33.81" ry="33.81" style="fill: none; stroke: #3575bb; stroke-miterlimit: 133.33; stroke-width: 3.42px;"/>
      <rect x="22.11" y="164.12" width="210.31" height="53.76" rx="26.88" ry="26.88" style="fill: none; stroke: #6a489d; stroke-miterlimit: 133.33; stroke-width: 2.95px;"/>
    </g>
    <g>
      <path d="M79.87,182.95l-1.14,6.31,4.19-4.04,2.79,4.5-5.23,1.97,5.23,1.55-2.79,4.4-4.19-3.78,1.14,6.21h-5.43l1.19-6.31-4.24,3.88-2.79-4.4,5.12-1.4-5.12-2.12,2.79-4.5,4.24,3.93-1.19-6.21h5.43Z" style="fill: #231f20;"/>
      <path d="M104.92,182.95l-1.14,6.31,4.19-4.04,2.79,4.5-5.23,1.97,5.23,1.55-2.79,4.4-4.19-3.78,1.14,6.21h-5.43l1.19-6.31-4.24,3.88-2.79-4.4,5.12-1.4-5.12-2.12,2.79-4.5,4.24,3.93-1.19-6.21h5.43Z" style="fill: #231f20;"/>
      <path d="M129.96,182.95l-1.14,6.31,4.19-4.04,2.79,4.5-5.23,1.97,5.23,1.55-2.79,4.4-4.19-3.78,1.14,6.21h-5.43l1.19-6.31-4.24,3.88-2.79-4.4,5.12-1.4-5.12-2.12,2.79-4.5,4.24,3.93-1.19-6.21h5.43Z" style="fill: #231f20;"/>
      <path d="M155.01,182.95l-1.14,6.31,4.19-4.04,2.79,4.5-5.23,1.97,5.23,1.55-2.79,4.4-4.19-3.78,1.14,6.21h-5.43l1.19-6.31-4.24,3.88-2.79-4.4,5.12-1.4-5.12-2.12,2.79-4.5,4.24,3.93-1.19-6.21h5.43Z" style="fill: #231f20;"/>
      <path d="M180.06,182.95l-1.14,6.31,4.19-4.04,2.79,4.5-5.23,1.97,5.23,1.55-2.79,4.4-4.19-3.78,1.14,6.21h-5.43l1.19-6.31-4.24,3.88-2.79-4.4,5.12-1.4-5.12-2.12,2.79-4.5,4.24,3.93-1.19-6.21h5.43Z" style="fill: #231f20;"/>
    </g>
  </g>
</svg>