<svg width="17" height="19" viewBox="0 0 17 19" fill="none" xmlns="http://www.w3.org/2000/svg">
<g clip-path="url(#clip0_5_494)">
<path d="M3.91667 17.4133C2.30584 17.4133 1 16.1074 1 14.4966C1 13.1003 1.98117 11.9332 3.29167 11.647V9.07988C3.29167 8.73468 3.57149 8.45488 3.91667 8.45488H7.875V6.51278C6.56451 6.22668 5.58333 5.05958 5.58333 3.66328C5.58333 2.05238 6.88917 0.746582 8.5 0.746582C10.1108 0.746582 11.4167 2.05238 11.4167 3.66328C11.4167 5.05958 10.4355 6.22668 9.125 6.51278V8.45488H13.0833C13.4285 8.45488 13.7083 8.73468 13.7083 9.07988V11.647C15.0188 11.9332 16 13.1003 16 14.4966C16 16.1074 14.6942 17.4133 13.0833 17.4133C11.4725 17.4133 10.1667 16.1074 10.1667 14.4966C10.1667 13.1003 11.1478 11.9332 12.4583 11.647V9.7049H4.54167V11.647C5.85216 11.9332 6.83333 13.1003 6.83333 14.4966C6.83333 16.1074 5.5275 17.4133 3.91667 17.4133Z" fill="white"/>
</g>
<defs>
<clipPath id="clip0_5_494">
<rect width="16" height="18" fill="white" transform="translate(0.5 0.0800781)"/>
</clipPath>
</defs>
</svg>
