<svg width="41" height="42" viewBox="0 0 41 42" fill="none" xmlns="http://www.w3.org/2000/svg">
<path d="M36.3236 30.7662L28.508 22.9506C31.1346 17.9537 30.3018 11.6116 26.1377 7.44746C20.9486 2.2584 12.5564 2.2584 7.36738 7.44746C2.17832 12.6366 2.17832 21.0287 7.36738 26.2178C9.92988 28.7803 13.3252 30.1256 16.7205 30.1256C18.8346 30.1256 20.9486 29.6131 22.8705 28.6522L30.7502 36.5319C31.5189 37.3006 32.5439 37.685 33.5689 37.685C34.594 37.685 35.6189 37.3006 36.3877 36.5319C37.9252 34.8662 37.9252 32.3678 36.3236 30.7662ZM9.16113 24.36C4.99707 20.1959 4.99707 13.4053 9.16113 9.24121C11.2752 7.12715 13.9658 6.10215 16.7205 6.10215C19.4752 6.10215 22.2299 7.12715 24.2799 9.24121C28.4439 13.4053 28.4439 20.1959 24.2799 24.36C20.1158 28.5241 13.3252 28.5241 9.16113 24.36ZM34.5299 34.61C33.9533 35.1866 33.0564 35.1866 32.5439 34.61L25.0486 27.1147C25.433 26.7944 25.7533 26.4741 26.1377 26.1537C26.458 25.8334 26.7783 25.4491 27.0986 25.0647L34.5939 32.56C35.1064 33.1366 35.1064 34.0975 34.5299 34.61Z" fill="#0C111D"/>
<path d="M19.3466 15.583C18.2576 15.583 17.1685 15.583 16.0794 15.583C16.5919 14.3018 17.1685 13.0205 17.681 11.7393C17.9372 11.0987 17.3607 10.3299 16.7841 10.1377C16.0154 9.94548 15.5029 10.394 15.1826 11.0346C14.4138 12.8283 13.6451 14.6862 12.8763 16.4799C12.556 17.2487 13.3888 18.0815 14.0935 18.0815H17.1044C16.4638 19.2346 15.8872 20.3877 15.2466 21.5408C14.4779 23.0143 16.656 24.2955 17.4888 22.8221C18.4497 21.0283 19.4107 19.2346 20.3716 17.4408C20.8841 16.6721 20.3076 15.583 19.3466 15.583Z" fill="#0F55DC"/>
</svg>
