<svg width="22" height="21" viewBox="0 0 22 21" fill="none" xmlns="http://www.w3.org/2000/svg">
<path d="M12.4586 7.06934C12.4586 6.72416 12.1788 6.44434 11.8336 6.44434C11.4884 6.44434 11.2086 6.72416 11.2086 7.06934C11.2086 9.09084 10.762 10.4037 9.94423 11.2215C9.12638 12.0394 7.81349 12.486 5.79199 12.486C5.44681 12.486 5.16699 12.7658 5.16699 13.111C5.16699 13.4561 5.44681 13.736 5.79199 13.736C7.81349 13.736 9.12638 14.1825 9.94423 15.0004C10.762 15.8182 11.2086 17.1311 11.2086 19.1526C11.2086 19.4978 11.4884 19.7776 11.8336 19.7776C12.1788 19.7776 12.4586 19.4978 12.4586 19.1526C12.4586 17.1311 12.9052 15.8182 13.723 15.0004C14.5409 14.1825 15.8538 13.736 17.8753 13.736C18.2205 13.736 18.5003 13.4561 18.5003 13.111C18.5003 12.7658 18.2205 12.486 17.8753 12.486C15.8538 12.486 14.5409 12.0394 13.723 11.2215C12.9052 10.4037 12.4586 9.09084 12.4586 7.06934Z" fill="#0F55DC"/>
<path d="M6.00032 5.19401C6.00032 4.96389 5.81377 4.77734 5.58365 4.77734C5.35354 4.77734 5.16699 4.96389 5.16699 5.19401C5.16699 6.0112 4.98598 6.50451 4.69007 6.80042C4.39416 7.09633 3.90085 7.27734 3.08365 7.27734C2.85354 7.27734 2.66699 7.46389 2.66699 7.69401C2.66699 7.92412 2.85354 8.11067 3.08365 8.11067C3.90085 8.11067 4.39416 8.29168 4.69007 8.58759C4.98598 8.8835 5.16699 9.37681 5.16699 10.194C5.16699 10.4241 5.35354 10.6107 5.58365 10.6107C5.81377 10.6107 6.00032 10.4241 6.00032 10.194C6.00032 9.37681 6.18133 8.8835 6.47724 8.58759C6.77315 8.29168 7.26646 8.11067 8.08365 8.11067C8.31377 8.11067 8.50032 7.92412 8.50032 7.69401C8.50032 7.46389 8.31377 7.27734 8.08365 7.27734C7.26646 7.27734 6.77315 7.09633 6.47724 6.80042C6.18133 6.50451 6.00032 6.0112 6.00032 5.19401Z" fill="#0F55DC"/>
<path d="M10.167 1.86002C10.167 1.6299 9.98044 1.44336 9.75032 1.44336C9.5202 1.44336 9.33365 1.6299 9.33365 1.86002C9.33365 2.38786 9.2163 2.67284 9.05639 2.83276C8.89647 2.99267 8.6115 3.11002 8.08365 3.11002C7.85354 3.11002 7.66699 3.29657 7.66699 3.52669C7.66699 3.75681 7.85354 3.94336 8.08365 3.94336C8.6115 3.94336 8.89647 4.06071 9.05639 4.22062C9.2163 4.38054 9.33365 4.66552 9.33365 5.19336C9.33365 5.42347 9.5202 5.61002 9.75032 5.61002C9.98044 5.61002 10.167 5.42347 10.167 5.19336C10.167 4.66552 10.2843 4.38054 10.4443 4.22062C10.6041 4.06071 10.8891 3.94336 11.4169 3.94336C11.6471 3.94336 11.8336 3.75681 11.8336 3.52669C11.8336 3.29657 11.6471 3.11002 11.4169 3.11002C10.8891 3.11002 10.6041 2.99267 10.4443 2.83276C10.2843 2.67284 10.167 2.38786 10.167 1.86002Z" fill="#0F55DC"/>
</svg>
