<svg width="20" height="21" viewBox="0 0 20 21" fill="none" xmlns="http://www.w3.org/2000/svg">
<path d="M16.1419 4.37515L11.2586 2.20015C10.5419 1.88348 9.45856 1.88348 8.74189 2.20015L3.85856 4.37515C2.62523 4.92515 2.44189 5.67515 2.44189 6.07515C2.44189 6.47515 2.62523 7.22515 3.85856 7.77515L8.74189 9.95015C9.10023 10.1085 9.55023 10.1918 10.0002 10.1918C10.4502 10.1918 10.9002 10.1085 11.2586 9.95015L16.1419 7.77515C17.3752 7.22515 17.5586 6.47515 17.5586 6.07515C17.5586 5.67515 17.3836 4.92515 16.1419 4.37515Z" fill="#0F55DC"/>
<path d="M9.99977 14.5001C9.68311 14.5001 9.36644 14.4334 9.07477 14.3084L3.45811 11.8084C2.59977 11.4251 1.93311 10.4001 1.93311 9.45846C1.93311 9.1168 2.20811 8.8418 2.54977 8.8418C2.89144 8.8418 3.16644 9.1168 3.16644 9.45846C3.16644 9.90846 3.54144 10.4917 3.95811 10.6751L9.57477 13.1751C9.84144 13.2917 10.1498 13.2917 10.4164 13.1751L16.0331 10.6751C16.4498 10.4917 16.8248 9.9168 16.8248 9.45846C16.8248 9.1168 17.0998 8.8418 17.4414 8.8418C17.7831 8.8418 18.0581 9.1168 18.0581 9.45846C18.0581 10.3917 17.3914 11.4251 16.5331 11.8084L10.9164 14.3084C10.6331 14.4334 10.3164 14.5001 9.99977 14.5001Z" fill="#0F55DC"/>
<path d="M9.99977 18.6335C9.68311 18.6335 9.36644 18.5668 9.07477 18.4418L3.45811 15.9418C2.53311 15.5335 1.93311 14.6085 1.93311 13.5918C1.93311 13.2501 2.20811 12.9751 2.54977 12.9751C2.89144 12.9751 3.16644 13.2501 3.16644 13.5918C3.16644 14.1168 3.47477 14.5918 3.95811 14.8085L9.57477 17.3085C9.84144 17.4251 10.1498 17.4251 10.4164 17.3085L16.0331 14.8085C16.5081 14.6001 16.8248 14.1168 16.8248 13.5918C16.8248 13.2501 17.0998 12.9751 17.4414 12.9751C17.7831 12.9751 18.0581 13.2501 18.0581 13.5918C18.0581 14.6085 17.4581 15.5251 16.5331 15.9418L10.9164 18.4418C10.6331 18.5668 10.3164 18.6335 9.99977 18.6335Z" fill="#0F55DC"/>
</svg>
